{
  "accessors": [
    {
      "bufferView": 2,
      "componentType": 5126,
      "count": 65534,
      "max": [
        5.1425018310546875,
        4.052873134613037,
        7.6273112297058105
      ],
      "min": [
        -4.731366157531738,
        -3.286318063735962,
        -0.08611399680376053
      ],
      "type": "VEC3"
    },
    {
      "bufferView": 2,
      "byteOffset": 786408,
      "componentType": 5126,
      "count": 65534,
      "max": [
        0.9999948740005493,
        0.9999446868896484,
        0.9999607801437378
      ],
      "min": [
        -0.9999985694885254,
        -0.9999951124191284,
        -0.9999891519546509
      ],
      "type": "VEC3"
    },
    {
      "bufferView": 3,
      "componentType": 5126,
      "count": 65534,
      "max": [
        0.999934196472168,
        0.999782383441925,
        0.9998819828033447,
        1.0
      ],
      "min": [
        -0.9999964237213135,
        -0.9999791979789734,
        -0.9999827146530151,
        -1.0
      ],
      "type": "VEC4"
    },
    {
      "bufferView": 1,
      "componentType": 5126,
      "count": 65534,
      "max": [
        1.0,
        1.0
      ],
      "min": [
        0.0,
        0.0
      ],
      "type": "VEC2"
    },
    {
      "bufferView": 0,
      "componentType": 5125,
      "count": 281277,
      "type": "SCALAR"
    },
    {
      "bufferView": 2,
      "byteOffset": 1572816,
      "componentType": 5126,
      "count": 939,
      "max": [
        4.816788196563721,
        4.052402019500732,
        5.676733016967773
      ],
      "min": [
        -1.3958309888839722,
        -1.1478279829025269,
        0.8258900046348572
      ],
      "type": "VEC3"
    },
    {
      "bufferView": 2,
      "byteOffset": 1584084,
      "componentType": 5126,
      "count": 939,
      "max": [
        0.9988206028938293,
        0.9966992735862732,
        0.9587303996086121
      ],
      "min": [
        -0.8809511661529541,
        -0.9669595956802368,
        -0.994364321231842
      ],
      "type": "VEC3"
    },
    {
      "bufferView": 3,
      "byteOffset": 1048544,
      "componentType": 5126,
      "count": 939,
      "max": [
        0.9989619851112366,
        0.9256289005279541,
        0.9994699954986572,
        1.0
      ],
      "min": [
        -0.9978378415107727,
        -0.992561936378479,
        -0.9955037832260132,
        -1.0
      ],
      "type": "VEC4"
    },
    {
      "bufferView": 1,
      "byteOffset": 524272,
      "componentType": 5126,
      "count": 939,
      "max": [
        0.9994999766349792,
        0.9998000264167786
      ],
      "min": [
        0.028300000354647636,
        0.029100000858306885
      ],
      "type": "VEC2"
    },
    {
      "bufferView": 0,
      "byteOffset": 1125108,
      "componentType": 5125,
      "count": 2169,
      "type": "SCALAR"
    }
  ],
  "asset": {
    "extras": {
      "author": "FletchTech (https://sketchfab.com/FletchTech)",
      "license": "CC-BY-4.0 (http://creativecommons.org/licenses/by/4.0/)",
      "source": "https://sketchfab.com/3d-models/forest-skull-ce4d33f9b9a3440f97aeec7ed9293b79",
      "title": "Forest Skull"
    },
    "generator": "Sketchfab-12.65.0",
    "version": "2.0"
  },
  "bufferViews": [
    {
      "buffer": 0,
      "byteLength": 1133784,
      "name": "floatBufferViews",
      "target": 34963
    },
    {
      "buffer": 0,
      "byteLength": 531784,
      "byteOffset": 1133784,
      "byteStride": 8,
      "name": "floatBufferViews",
      "target": 34962
    },
    {
      "buffer": 0,
      "byteLength": 1595352,
      "byteOffset": 1665568,
      "byteStride": 12,
      "name": "floatBufferViews",
      "target": 34962
    },
    {
      "buffer": 0,
      "byteLength": 1063568,
      "byteOffset": 3260920,
      "byteStride": 16,
      "name": "floatBufferViews",
      "target": 34962
    }
  ],
  "buffers": [
    {
      "byteLength": 4324488,
      "uri": "scene.bin"
    }
  ],
  "images": [
    {
      "uri": "textures/Material.001_baseColor.png"
    },
    {
      "uri": "textures/Material.001_normal.jpeg"
    }
  ],
  "materials": [
    {
      "name": "Material.001",
      "normalTexture": {
        "index": 1,
        "scale": 0.75
      },
      "pbrMetallicRoughness": {
        "baseColorTexture": {
          "index": 0
        },
        "metallicFactor": 0.0
      }
    }
  ],
  "meshes": [
    {
      "name": "Object_0",
      "primitives": [
        {
          "attributes": {
            "NORMAL": 1,
            "POSITION": 0,
            "TANGENT": 2,
            "TEXCOORD_0": 3
          },
          "indices": 4,
          "material": 0,
          "mode": 4
        }
      ]
    },
    {
      "name": "Object_1",
      "primitives": [
        {
          "attributes": {
            "NORMAL": 6,
            "POSITION": 5,
            "TANGENT": 7,
            "TEXCOORD_0": 8
          },
          "indices": 9,
          "material": 0,
          "mode": 4
        }
      ]
    }
  ],
  "nodes": [
    {
      "children": [
        1
      ],
      "matrix": [
        1.0,
        0.0,
        0.0,
        0.0,
        0.0,
        2.220446049250313e-16,
        -1.0,
        0.0,
        0.0,
        1.0,
        2.220446049250313e-16,
        0.0,
        0.0,
        0.0,
        0.0,
        1.0
      ],
      "name": "Sketchfab_model"
    },
    {
      "children": [
        2,
        3
      ],
      "name": "Forest Skull.OBJ.cleaner.materialmerger.gles"
    },
    {
      "mesh": 0,
      "name": "Object_2"
    },
    {
      "mesh": 1,
      "name": "Object_3"
    }
  ],
  "samplers": [
    {
      "magFilter": 9729,
      "minFilter": 9987,
      "wrapS": 10497,
      "wrapT": 10497
    }
  ],
  "scene": 0,
  "scenes": [
    {
      "name": "Sketchfab_Scene",
      "nodes": [
        0
      ]
    }
  ],
  "textures": [
    {
      "sampler": 0,
      "source": 0
    },
    {
      "sampler": 0,
      "source": 1
    }
  ]
}
